<?xml version="1.0" standalone="no"?><!DOCTYPE svg PUBLIC "-//W3C//DTD SVG 1.1//EN" "http://www.w3.org/Graphics/SVG/1.1/DTD/svg11.dtd"><svg class="icon" width="200px" height="200.00px" viewBox="0 0 1024 1024" version="1.1" xmlns="http://www.w3.org/2000/svg"><path d="M298.668533 426.666667c0-117.82 95.513333-213.333333 213.333334-213.333334s213.333333 95.513333 213.333333 213.333334-95.513333 213.333333-213.333333 213.333333-213.333333-95.513333-213.333334-213.333333z m723.52 76.733333A558.333333 558.333333 0 0 0 512.001867 170.666667c141.386667 0 256 114.613333 256 256s-114.613333 256-256 256-256-114.613333-256-256 114.613333-256 256-256A558.333333 558.333333 0 0 0 1.8152 503.4a21.28 21.28 0 0 0 0 17.2 557.653333 557.653333 0 0 0 1020.373333 0 21.28 21.28 0 0 0 0-17.2z" fill="#5C5C66" /></svg>