<?xml version="1.0" standalone="no"?><!DOCTYPE svg PUBLIC "-//W3C//DTD SVG 1.1//EN" "http://www.w3.org/Graphics/SVG/1.1/DTD/svg11.dtd"><svg class="icon" width="200px" height="200.00px" viewBox="0 0 1024 1024" version="1.1" xmlns="http://www.w3.org/2000/svg"><path d="M921.6 81.92H102.4C46.08 81.92 0 128 0 184.32v655.36c0 56.832 46.08 102.4 102.4 102.4h819.2c56.832 0 102.4-45.568 102.4-102.4V184.32c0-56.32-45.568-102.4-102.4-102.4zM204.8 230.4c33.792 0 61.44 27.648 61.44 61.44s-27.648 61.44-61.44 61.44-61.44-27.648-61.44-61.44 27.648-61.44 61.44-61.44z m737.28 491.52c0 39.424-32.256 71.68-71.68 71.68H153.6c-39.424 0-71.68-32.256-71.68-71.68v-65.536c0-15.36 7.168-30.208 18.944-39.936l153.6-124.928c20.992-17.408 52.224-14.848 70.656 5.632l108.544 121.344 1.536 1.536c1.024 1.024 2.048 2.56 3.072 3.584 16.384 15.872 41.984 15.36 57.856-1.024l160.256-165.376c19.456-20.48 52.224-20.992 72.192-1.024l197.632 192c9.728 9.728 15.36 23.04 15.36 36.864v36.864z" /></svg>