<?xml version="1.0" standalone="no"?><!DOCTYPE svg PUBLIC "-//W3C//DTD SVG 1.1//EN" "http://www.w3.org/Graphics/SVG/1.1/DTD/svg11.dtd"><svg class="icon" width="200px" height="200.00px" viewBox="0 0 1024 1024" version="1.1" xmlns="http://www.w3.org/2000/svg"><path d="M409.113 95.852h-299.65c-24.82 0-44.947 20.137-44.947 44.956v299.62c0 24.82 20.127 44.957 44.947 44.957h299.65c24.79 0 44.945-20.137 44.945-44.956V140.808c0-24.82-20.156-44.956-44.945-44.956zM869.771 556.522h-299.66c-24.82 0-44.936 20.116-44.936 44.935v299.64c0 24.821 20.116 44.937 44.937 44.937h299.66c24.8 0 44.936-20.116 44.936-44.936v-299.64c0-24.82-20.137-44.936-44.937-44.936zM937.536 210.565L695.37 82.722c-20.035-10.588-44.876-2.902-55.483 17.114L512.025 342.049c-10.568 20.077-2.892 44.877 17.174 55.505l242.174 127.823c20.056 10.588 44.936 2.902 55.524-17.135L954.72 266.07c10.599-20.076 2.922-44.916-17.184-55.504zM409.113 556.522h-299.65c-24.82 0-44.947 20.116-44.947 44.935v299.64c0 24.821 20.127 44.937 44.947 44.937h299.65c24.79 0 44.945-20.116 44.945-44.936v-299.64c0-24.82-20.156-44.936-44.945-44.936z"  /></svg>