<?xml version="1.0" standalone="no"?><!DOCTYPE svg PUBLIC "-//W3C//DTD SVG 1.1//EN" "http://www.w3.org/Graphics/SVG/1.1/DTD/svg11.dtd"><svg class="icon" width="200px" height="182.53px" viewBox="0 0 1122 1024" version="1.1" xmlns="http://www.w3.org/2000/svg"><path d="M601.6 115.2c120.1792 0 217.6 97.4208 217.6 217.6 0 82.3808-45.7856 154.0736-113.2928 191.0144 13.0048 3.4048 25.792 7.552 38.3232 12.4288a38.4 38.4 0 1 1-27.8272 71.5904A280.7936 280.7936 0 0 0 614.4 588.8c-155.52 0-281.6 126.08-281.6 281.6a38.4 38.4 0 0 1-76.8 0c0-160.32 105.2672-296.064 250.4576-341.8624C433.9584 493.248 384 418.8544 384 332.8c0-120.1792 97.4208-217.6 217.6-217.6zM345.6 0c49.024 0 95.6544 16.2944 133.5424 45.7856a38.4 38.4 0 0 1-47.168 60.608A140.0064 140.0064 0 0 0 345.6 76.8c-77.76 0-140.8 63.04-140.8 140.8 0 58.7648 36.3392 110.6432 90.048 131.392l3.6096 1.3312c8.8576 3.1488 15.8464 9.216 20.2624 16.7552a38.4 38.4 0 0 1-11.3536 65.8688C169.8816 482.2656 76.8 610.2528 76.8 755.2a38.4 38.4 0 0 1-76.8 0c0-152.9984 84.2752-290.2656 214.5024-363.904A217.5104 217.5104 0 0 1 128 217.6c0-120.1792 97.4208-217.6 217.6-217.6z m256 192c-77.76 0-140.8 63.04-140.8 140.8s63.04 140.8 140.8 140.8 140.8-63.04 140.8-140.8-63.04-140.8-140.8-140.8z" fill="#303133" /><path d="M832 601.6a38.4 38.4 0 0 1 38.336 36.1472L870.4 640v89.6h89.6a38.4 38.4 0 0 1 2.2528 76.736L960 806.4h-89.6v89.6a38.4 38.4 0 0 1-76.736 2.2528L793.6 896v-89.6h-89.6a38.4 38.4 0 0 1-2.2528-76.736L704 729.6h89.6v-89.6a38.4 38.4 0 0 1 38.4-38.4z" fill="#FF6F26" /></svg>