<?xml version="1.0" standalone="no"?><!DOCTYPE svg PUBLIC "-//W3C//DTD SVG 1.1//EN" "http://www.w3.org/Graphics/SVG/1.1/DTD/svg11.dtd"><svg class="icon" width="200px" height="200.00px" viewBox="0 0 1024 1024" version="1.1" xmlns="http://www.w3.org/2000/svg"><path d="M790.114 568.504c111.858 0 169.886-23.24 169.886-56.004s-58.032-56.006-169.886-56.006c-57.464 0-129.416 14.782-185.804 29.156-1.95-6.838-4.61-13.376-7.946-19.5 50.018-29.704 111.29-70.1 151.894-110.706 79.094-79.094 104.046-136.916 80.88-160.084-5.494-5.496-12.944-8.284-22.158-8.284-29.636 0-77.592 28.83-137.926 89.164-40.564 40.564-80.918 101.746-110.614 151.738-6.124-3.392-12.66-6.124-19.51-8.124 14.35-56.34 29.07-128.118 29.07-185.47C568.004 122.532 544.764 64 512 64s-56.004 58.532-56.004 170.388c0 57.352 14.724 129.13 29.072 185.47-6.85 2-13.386 4.73-19.51 8.124-29.694-49.992-70.046-111.174-110.61-151.738C294.618 215.914 246.66 187.08 217.02 187.08c-9.218 0-16.662 2.788-22.158 8.284-23.168 23.166 1.788 80.988 80.88 160.082 40.606 40.606 101.876 81.002 151.894 110.706-3.336 6.124-5.998 12.662-7.948 19.5-56.388-14.376-128.338-29.156-185.802-29.156C122.032 456.494 64 479.236 64 512s58.032 56.504 169.888 56.504c57.554 0 129.64-14.826 186.068-29.222 2.006 6.784 4.736 13.25 8.11 19.312-50.096 29.726-111.602 70.238-152.322 110.958-79.094 79.096-104.046 136.918-80.88 160.086 5.496 5.496 12.942 8.284 22.156 8.284 29.638 0 77.592-28.83 137.926-89.166 40.764-40.762 81.318-102.354 111.052-152.476 6.064 3.314 12.534 5.976 19.302 7.934-14.422 56.476-29.308 128.734-29.308 186.402C455.996 902.468 479.236 960 512 960s56.004-57.532 56.004-169.386c0-57.668-14.882-129.926-29.304-186.402 6.77-1.958 13.236-4.62 19.3-7.934 29.734 50.124 70.29 111.714 111.054 152.478 60.328 60.33 108.288 89.164 137.926 89.164 9.216 0 16.66-2.788 22.156-8.284 23.168-23.168-1.788-80.99-80.878-160.086-40.722-40.718-102.228-81.23-152.324-110.958 3.376-6.062 6.106-12.532 8.11-19.312C660.474 553.678 732.56 568.504 790.114 568.504zM639.984 509.882c60.288-14.028 111.786-21.388 150.128-21.388 42.658 0 78.906 3.612 104.82 10.444 19.41 5.118 28.01 10.634 31.472 13.562-3.462 2.926-12.062 8.442-31.472 13.558-25.916 6.832-62.162 10.446-104.82 10.446-38.352 0-89.854-7.36-150.15-21.39L639.984 509.882zM691.682 298.872c70.764-70.766 105.364-78.824 113.636-79.692-0.422 4.61-2.686 14.652-12.808 31.982-13.572 23.24-36.7 51.476-66.878 81.656-27.066 27.068-68.6 58.222-121.026 90.876-1.238-1.296-2.5-2.566-3.79-3.808C633.464 367.458 664.618 325.936 691.682 298.872zM419.396 423.692c-52.426-32.652-93.958-63.808-121.024-90.874-30.18-30.182-53.306-58.416-66.878-81.656-10.122-17.33-12.388-27.374-12.808-31.984 8.276 0.87 42.872 8.926 113.636 79.69 27.066 27.066 58.216 68.59 90.866 121.014C421.896 421.126 420.632 422.396 419.396 423.692zM233.888 536.504c-42.678 0-78.966-3.69-104.942-10.67-19.378-5.208-27.922-10.788-31.35-13.74 3.5-2.902 12.154-8.354 31.592-13.378 25.854-6.686 62.058-10.22 104.702-10.22 38.344 0 89.844 7.36 150.128 21.388l0.02 5.23C323.74 529.144 272.24 536.504 233.888 536.504zM332.32 726.128c-70.766 70.764-105.36 78.82-113.636 79.692 0.42-4.61 2.686-14.652 12.808-31.984 13.572-23.238 36.698-51.472 66.878-81.656 27.174-27.172 68.914-58.458 121.63-91.25 1.168 1.208 2.362 2.394 3.578 3.558C390.788 657.208 359.498 698.95 332.32 726.128zM604 600.93c52.712 32.79 94.454 64.074 121.628 91.25 30.182 30.184 53.306 58.418 66.878 81.656 10.124 17.332 12.386 27.376 12.806 31.984-8.276-0.872-42.872-8.928-113.634-79.692-27.178-27.18-58.468-68.926-91.26-121.64C601.636 603.326 602.83 602.136 604 600.93zM498.444 129.356c5.096-19.406 10.594-28.11 13.556-31.668 2.96 3.56 8.46 12.262 13.554 31.668 6.836 26.03 10.45 62.348 10.45 105.032 0 38.234-7.32 89.562-21.274 149.642l-5.46 0c-13.954-60.08-21.276-111.408-21.276-149.642C487.996 191.706 491.608 155.386 498.444 129.356zM525.564 895.224c-5.138 19.414-10.678 27.908-13.564 31.272-2.888-3.364-8.424-11.858-13.564-31.272-6.83-25.802-10.44-61.976-10.44-104.616 0-38.456 7.402-90.132 21.504-150.632l5 0c14.104 60.5 21.504 112.178 21.504 150.632C536.004 833.248 532.394 869.422 525.564 895.224zM512 576c-35.346 0-64-28.654-64-64s28.654-64 64-64 64 28.654 64 64S547.346 576 512 576z"  /><path d="M689.72 811.356c-49.058-35.348-96.788-103.464-96.788-103.464s14.062 82.118 3.708 151.892c23.356 43.558 52.278 70.506 73.286 70.506 3.498 0 6.864-0.648 10.084-1.952C703.758 918.744 708.78 878.37 689.72 811.356zM667.476 897.132c-5.476-2.92-18.814-12.738-37.984-44.54 1.376-15.744 2.196-32.674 2.438-50.564 10.024 9.76 19.894 18.874 29.494 27.226C671.632 868.816 669.908 889.558 667.476 897.132z"  /><path d="M427.358 165.216c-26.584-47.02-52.278-70.51-73.288-70.51-3.498 0-6.862 0.65-10.084 1.952-23.736 9.59-28.994 46.422-9.74 116.882 42.504 31.96 96.748 103.1 96.748 103.1S415.5 235 427.358 165.216zM392.076 222.738c-10.002-9.712-19.886-18.796-29.538-27.148-10.168-39.462-8.446-60.164-6.016-67.726 5.474 2.918 18.814 12.738 37.988 44.54C393.136 188.08 392.322 204.932 392.076 222.738z"  /><path d="M164.714 597.136c-54.844 31.01-77.672 60.804-68.554 83.374 5.612 13.888 21.826 21.35 47.684 21.35 18.364 0 44.868-3.118 69.344-11.652 34.81-47.868 103.424-96.774 103.424-96.774S233.998 605.672 164.714 597.136zM195.274 661.912c-20.176 5.212-37.818 7.948-51.432 7.948-8.184 0-13.466-1.004-16.446-1.94 2.954-5.51 12.814-18.822 44.506-37.932 15.744 1.378 32.676 2.198 50.568 2.44C212.73 642.436 203.63 652.3 195.274 661.912z"  /><path d="M927.84 344.49c-5.612-13.89-21.828-21.35-47.688-21.35-18.356 0-42.8 3.43-69.308 11.644-36.176 47.548-103.398 96.774-103.398 96.774s81.556-14.56 151.836-3.698C914.128 396.852 936.958 367.056 927.84 344.49zM852.094 395.008c-15.734-1.378-32.654-2.194-50.534-2.436 9.738-10.008 18.84-19.878 27.2-29.498 20.162-5.204 37.79-7.936 51.394-7.936 8.186 0 13.466 1.004 16.45 1.94C893.648 362.588 883.786 375.902 852.094 395.008z"  /><path d="M326.27 817.96c-16.84 60.68-11.912 97.876 10.488 107.38 3.348 1.422 6.874 2.132 10.55 2.132 22.214 0 49.396-26.248 79.056-78.03-8.368-64.44 4.702-141.558 4.702-141.558S387.998 770.672 326.27 817.96zM349.962 894.414c-1.808-5.932-4.294-22.3 4.624-58.318 12.096-10.158 24.646-21.564 37.486-34.064 0.19 13.958 0.732 27.374 1.62 40.078C372.932 877.32 357.04 890.78 349.962 894.414z"  /><path d="M687.244 99.652c-3.348-1.42-6.876-2.132-10.548-2.132-22.21 0-52.414 28.574-79.054 78.026 9.028 45.788-4.786 142.106-4.786 142.106s46.478-68.652 104.684-109.912C714.334 144 709.73 109.198 687.244 99.652zM669.254 189.562c-12.058 10.102-24.554 21.44-37.32 33.862-0.184-14.124-0.728-27.692-1.624-40.538 20.758-35.214 36.654-48.672 43.728-52.306C675.86 136.548 678.372 153.082 669.254 189.562z"  /><path d="M206.418 326.734C186 319 161.434 316.732 144.914 316.732c-24.534 0-40.084 7.146-45.762 20.522-10.008 23.584 19.94 59.97 75.896 89.61 59.452-7.864 141.376 4.672 141.376 4.672S242 374.134 206.418 326.734zM130.068 350.43c2.762-0.828 7.55-1.696 14.848-1.696 11.63 0 26.484 2.176 43.374 6.33 10.154 12.098 21.562 24.66 34.068 37.508-13.918 0.192-27.296 0.734-39.968 1.62C147.126 373.4 133.68 357.49 130.068 350.43z"  /><path d="M848.954 598.132c-50.614 11.2-141.56-4.7-141.56-4.7s69.276 51.23 110.028 104.786c23.918 8.446 45.11 10.044 61.666 10.044 24.532 0 40.082-7.146 45.76-20.522C934.856 664.16 908.566 631.602 848.954 598.132zM879.084 676.264c-11.666 0-26.574-2.19-43.53-6.37-10.156-12.106-21.548-24.652-34.026-37.468 13.96-0.19 27.376-0.73 40.082-1.622 35.262 20.792 48.708 36.704 52.316 43.764C891.17 675.394 886.38 676.264 879.084 676.264z"  /></svg>