<?xml version="1.0" standalone="no"?><!DOCTYPE svg PUBLIC "-//W3C//DTD SVG 1.1//EN" "http://www.w3.org/Graphics/SVG/1.1/DTD/svg11.dtd"><svg class="icon" width="200px" height="200.00px" viewBox="0 0 1024 1024" version="1.1" xmlns="http://www.w3.org/2000/svg"><path d="M926.4 560L152 147.2c-11.2-5.6-24.8 3.2-23.2 15.2l60 714.4c0.8 11.2 12 17.6 22.4 13.6l249.6-104.8 136.8 155.2c8.8 9.6 24 5.6 27.2-6.4L689.6 688l235.2-99.2c12-4.8 12.8-22.4 1.6-28.8z m-688.8 266.4l-56-544 256 456-200 88z m-80-656l488 504-48 192m88-232l-400-384 560 320-160 64z" /></svg>