<?xml version="1.0" standalone="no"?><!DOCTYPE svg PUBLIC "-//W3C//DTD SVG 1.1//EN" "http://www.w3.org/Graphics/SVG/1.1/DTD/svg11.dtd"><svg class="icon" width="200px" height="200.00px" viewBox="0 0 1024 1024" version="1.1" xmlns="http://www.w3.org/2000/svg"><path d="M609.495 201c44.435 0 80.457 36.048 80.457 80.514v397.972c0 44.466-36.022 80.514-80.457 80.514H124.457C80.022 760 44 723.952 44 679.486V281.514C44 237.048 80.022 201 124.457 201h485.038z m344.498 54.52l0.007 0.69v447.2c0 22.569-23.98 36.922-43.787 26.472l-0.599-0.324L719.126 623.76c-14.43-8.015-19.636-26.22-11.627-40.66 7.888-14.223 25.651-19.491 39.973-11.992l0.658 0.356 146.1 81.144V308.392L748.737 393.71c-14.024 8.223-31.994 3.708-40.506-10.042l-0.386-0.642c-8.217-14.034-3.706-32.016 10.035-40.534l0.641-0.387 190.488-111.696c19.723-11.565 44.491 2.41 44.985 25.111z m-344.498 5.29H124.457c-11.222 0-20.358 8.942-20.68 20.094l-0.01 0.61v397.972c0 11.23 8.936 20.372 20.08 20.694l0.61 0.01h485.038c11.222 0 20.357-8.942 20.68-20.094l0.009-0.61V281.514c0-11.23-8.935-20.372-20.079-20.694l-0.61-0.01z m-66.664 36.807c21.583 0 39.079 17.51 39.079 39.107 0 21.598-17.496 39.107-39.079 39.107-21.583 0-39.079-17.509-39.079-39.107s17.496-39.107 39.079-39.107z" fill="#333333" /></svg>