<?xml version="1.0" standalone="no"?><!DOCTYPE svg PUBLIC "-//W3C//DTD SVG 1.1//EN" "http://www.w3.org/Graphics/SVG/1.1/DTD/svg11.dtd"><svg class="icon" width="200px" height="200.00px" viewBox="0 0 1024 1024" version="1.1" xmlns="http://www.w3.org/2000/svg"><path d="M927.178349 623.273293c-10.505261 39.22128-26.78197 77.051887-48.351218 112.467491-6.219655 10.121522-19.394722 13.351076-29.547966 7.194866-10.121522-6.187933-13.351076-19.426445-7.179516-29.579689 19.47454-31.882128 34.121122-65.971527 43.602054-101.227496 26.717502-99.804077 12.967336-204.053396-38.661531-293.560966-51.676963-89.443102-135.092791-153.464207-234.913241-180.198082-99.804077-26.717502-204.053396-13.078877-293.544593 38.598086-89.459474 51.676963-153.479557 135.092791-180.213431 234.896868C83.143117 617.933681 205.84367 830.477448 411.880233 885.687888c102.986559 27.597545 210.16151 11.975752 301.635875-43.922349 10.153244-6.187933 23.376407-2.958378 29.531594 7.131421 6.204305 10.153244 3.021823 23.391756-7.131421 29.547966-68.785619 42.035372-145.565307 63.541175-223.480864 63.541175-37.20639 0-74.66963-4.892427-111.651916-14.83794-228.964762-61.318554-365.28859-297.462832-303.938314-526.363126 29.692253-110.917182 100.860129-203.606211 200.264093-261.007549 99.453083-57.401338 215.261669-72.623018 326.162478-42.930765C852.20582 158.165276 988.529649 394.308531 927.178349 623.273293L927.178349 623.273293zM512.004605 533.526269c-11.864212 0-21.457708-9.657964-21.457708-21.537526L490.546897 254.131955c0-11.879562 9.593496-21.473057 21.457708-21.473057 11.879562 0 21.521153 9.593496 21.521153 21.473057l0 257.856789C533.525758 523.869329 523.884167 533.526269 512.004605 533.526269L512.004605 533.526269zM726.898907 533.526269l-214.894302 0c-11.864212 0-21.457708-9.657964-21.457708-21.537526s9.593496-21.441335 21.457708-21.441335l214.894302 0c11.879562 0 21.521153 9.561773 21.521153 21.441335S738.778468 533.526269 726.898907 533.526269L726.898907 533.526269z" /></svg>