<?xml version="1.0" standalone="no"?><!DOCTYPE svg PUBLIC "-//W3C//DTD SVG 1.1//EN" "http://www.w3.org/Graphics/SVG/1.1/DTD/svg11.dtd"><svg class="icon" width="200px" height="200.00px" viewBox="0 0 1024 1024" version="1.1" xmlns="http://www.w3.org/2000/svg"><path d="M512 896l384-53.76v-640L526.08 256a97.92 97.92 0 0 1-28.16 0L128 202.88v640zM136.96 138.88L506.88 192a25.6 25.6 0 0 0 10.24 0l369.92-53.12a64 64 0 0 1 50.56 16 64 64 0 0 1 22.4 48v640a64 64 0 0 1-15.36 41.6 64 64 0 0 1-39.68 21.76L517.12 960a25.6 25.6 0 0 1-10.24 0l-387.84-55.04a64 64 0 0 1-39.68-21.76 64 64 0 0 1-15.36-41.6v-640a64 64 0 0 1 22.4-48 64 64 0 0 1 50.56-16zM480 224.64h64v704h-64z" /></svg>