<?xml version="1.0" standalone="no"?><!DOCTYPE svg PUBLIC "-//W3C//DTD SVG 1.1//EN" "http://www.w3.org/Graphics/SVG/1.1/DTD/svg11.dtd"><svg class="icon" width="200px" height="200.00px" viewBox="0 0 1024 1024" version="1.1" xmlns="http://www.w3.org/2000/svg"><path d="M162.133333 196.266667v-68.266667c0-18.773333 15.36-34.133333 34.133334-34.133333h733.866666c0-37.546667-30.72-68.266667-68.266666-68.266667h-699.733334c-37.546667 0-68.266667 30.72-68.266666 68.266667v836.266666c0 37.546667 30.72 68.266667 68.266666 68.266667h51.2a17.066667 17.066667 0 0 0 17.066667-17.066667v-733.866666a17.066667 17.066667 0 0 0-17.066667-17.066667h-17.066666c-18.773333 0-34.133333-15.36-34.133334-34.133333z" fill="#040000" /><path d="M793.6 668.689067l-170.478933-171.0592L452.266667 667.869867V247.466667a17.066667 17.066667 0 0 0-17.066667-17.066667h-119.466667a17.066667 17.066667 0 0 0-17.066666 17.066667v733.866666a17.066667 17.066667 0 0 0 17.066666 17.066667h546.133334c37.546667 0 68.266667-30.72 68.266666-68.266667v-682.666666a17.066667 17.066667 0 0 0-17.066666-17.066667h-102.4a17.066667 17.066667 0 0 0-17.066667 17.066667v421.2224z" fill="#040000" /><path d="M623.291733 401.066667l102.0416 102.4v-290.133334a17.066667 17.066667 0 0 0-17.066666-17.066666h-170.666667a17.066667 17.066667 0 0 0-17.066667 17.066666v290.133334l102.7584-102.4z" fill="#040000" /></svg>