<?xml version="1.0" standalone="no"?><!DOCTYPE svg PUBLIC "-//W3C//DTD SVG 1.1//EN" "http://www.w3.org/Graphics/SVG/1.1/DTD/svg11.dtd"><svg class="icon" width="200px" height="200.00px" viewBox="0 0 1024 1024" version="1.1" xmlns="http://www.w3.org/2000/svg"><path d="M674.1504 619.9808l1.6896 1.536 235.3152 235.3152a25.6 25.6 0 1 1-36.1984 36.1984l-235.3152-235.3152a26.0608 26.0608 0 0 1-0.2048-0.1536 320 320 0 1 1 9.216-461.4144 25.6 25.6 0 0 1-36.1984 36.1984 268.8 268.8 0 1 0 67.3792 112.5376 25.6 25.6 0 1 1 49.0496-14.6944c10.0864 33.6384 14.592 68.7616 13.312 103.936a318.7712 318.7712 0 0 1-68.0448 185.856z" fill="#9DA7B2" /></svg>