<?xml version="1.0" standalone="no"?><!DOCTYPE svg PUBLIC "-//W3C//DTD SVG 1.1//EN" "http://www.w3.org/Graphics/SVG/1.1/DTD/svg11.dtd"><svg class="icon" width="200px" height="200.00px" viewBox="0 0 1024 1024" version="1.1" xmlns="http://www.w3.org/2000/svg"><path d="M937.728 702.976L817.92 529.152l-42.112 29.056 92.032 133.632H691.328v51.2h225.28c9.472 0 18.176-5.248 22.656-13.696s3.84-18.56-1.536-26.368zM409.728 557.952l-42.496-28.544-116.352 173.824c-5.248 7.808-5.76 17.92-1.28 26.24s13.184 13.568 22.528 13.568h238.72v-51.2h-190.72l89.6-133.888zM758.912 430.72L615.424 221.696c-4.736-6.912-12.672-11.136-21.12-11.136h-0.128a25.6 25.6 0 0 0-21.12 11.392L433.152 430.976l42.496 28.544 118.912-177.664 122.112 177.92 42.24-29.056z" fill="#ffffff" /></svg>