<?xml version="1.0" standalone="no"?><!DOCTYPE svg PUBLIC "-//W3C//DTD SVG 1.1//EN" "http://www.w3.org/Graphics/SVG/1.1/DTD/svg11.dtd"><svg class="icon" width="200px" height="200.00px" viewBox="0 0 1024 1024" version="1.1" xmlns="http://www.w3.org/2000/svg"><path d="M793.739035 924.595683H451.408699c-56.5955 0-102.815937-43.55657-102.815937-97.161061V457.998266c0-53.557756 45.986765-97.114326 102.815937-97.114326h342.330336c56.548765 0 102.582265 43.55657 102.582265 97.114326v369.623294c0 53.417553-46.033499 96.974123-102.582265 96.974123zM451.408699 435.472229c-15.095249 0-28.04071 10.234859-28.04071 22.339099v369.623294c0 12.150974 12.711789 22.385834 28.04071 22.385833h342.330336c15.095249 0 27.807038-10.234859 27.807038-22.385833V457.998266c0-12.10424-12.711789-22.339099-27.807038-22.339099z"  /><path d="M235.121355 121.977089c-36.079047 0-65.428324 42.061065-65.428324 93.469034v578.573319c0 51.407969 29.255808 93.469034 65.428324 93.469034h342.89115c36.032313 0 65.428324-42.061065 65.428324-93.469034V215.492857c0-51.407969-29.255808-93.469034-65.428324-93.469033z" fill="#FFFFFF" /><path d="M578.012505 924.922824H235.121355c-57.576925 0-102.815937-57.483456-102.815938-130.856647V215.492857c0-73.419926 45.145543-130.856647 102.815938-130.856647h342.89115c57.576925 0 102.815937 57.483456 102.815937 130.856647V794.019442c-0.140204 73.419926-45.239012 130.903382-102.815937 130.903382zM235.121355 159.364703c-11.122815 0-28.04071 22.385834-28.040711 56.08142v578.573319c0 33.742321 16.824426 56.08142 28.040711 56.081421h342.89115c11.122815 0 28.04071-22.385834 28.04071-56.081421V215.492857c0-33.742321-16.777692-56.08142-28.04071-56.08142z"  /><path d="M480.197161 924.922824H332.889964c-36.686596 0-65.428324-25.65725-65.428324-58.418146V736.535986c0-32.714162 28.741728-58.418146 65.428324-58.418146h147.307197c36.686596 0 65.428324 25.65725 65.428324 58.418146v129.968692c0 32.760896-28.741728 58.418146-65.428324 58.418146z m-137.960294-74.775227h128.613391V752.893067H342.236867z m138.007029-97.25453zM508.237871 359.85578H304.849254a37.387614 37.387614 0 0 1 0-74.775227h203.388617a37.387614 37.387614 0 1 1 0 74.775227zM508.237871 519.547624H304.849254a37.387614 37.387614 0 0 1 0-74.775227h203.388617a37.387614 37.387614 0 0 1 0 74.775227z"  /></svg>